<svg width="145" height="130" viewBox="0 0 145 130" fill="none" xmlns="http://www.w3.org/2000/svg">
<path d="M112.158 50.4193C120.279 63.2445 116.792 79.9083 104.525 87.6751C92.2577 95.4419 75.7034 91.4677 67.583 78.6424C59.4626 65.8171 62.95 49.1534 75.2168 41.3866C87.4837 33.6197 104.038 37.594 112.158 50.4193Z" stroke="white" stroke-width="3"/>
<path d="M106.502 88.536C106.059 87.836 105.132 87.6279 104.432 88.071C103.732 88.5142 103.524 89.4409 103.967 90.1408L106.502 88.536ZM120.84 115.969C121.649 116.15 122.451 115.642 122.633 114.834L125.591 101.662C125.773 100.854 125.265 100.052 124.456 99.8701C123.648 99.6885 122.846 100.197 122.664 101.005L120.034 112.713L108.326 110.083C107.518 109.902 106.715 110.41 106.534 111.218C106.352 112.026 106.86 112.829 107.668 113.01L120.84 115.969ZM103.967 90.1408L119.902 115.308L122.436 113.703L106.502 88.536L103.967 90.1408Z" fill="white"/>
<circle cx="58.239" cy="69.6355" r="27.3933" transform="rotate(-32.3401 58.239 69.6355)" stroke="white" stroke-width="3"/>
<path d="M23.4766 16.8745L42.0474 46.2052" stroke="white" stroke-width="3" stroke-linecap="round"/>
<path d="M43.0938 23.103L20.6818 36.8327" stroke="white" stroke-width="3" stroke-linecap="round"/>
</svg>
