<svg width="103" height="127" viewBox="0 0 103 127" fill="none" xmlns="http://www.w3.org/2000/svg">
<path d="M51 113.141L17.9345 113.141C9.03353 113.135 1.82701 106.522 1.83258 98.3698L1.88837 16.6092C1.89393 8.45695 9.10946 1.85404 18.0105 1.86012L67.9909 1.89422C76.8919 1.90029 84.0984 8.51304 84.0929 16.6653L84.0929 74.5" stroke="white" stroke-width="3" stroke-linecap="round" stroke-linejoin="round"/>
<path d="M78.1735 125.204C90.8369 125.212 101.11 115.047 101.118 102.499C101.127 89.9515 90.8679 79.7723 78.2045 79.7637C65.5411 79.7551 55.2684 89.9202 55.2599 102.468C55.2513 115.016 65.5101 125.195 78.1735 125.204Z" stroke="white" stroke-width="3" stroke-linecap="round" stroke-linejoin="round"/>
<path d="M16.3594 28.4883L69.8568 28.5248" stroke="white" stroke-width="3" stroke-linecap="round" stroke-linejoin="round"/>
<path d="M16.0117 46.0103L69.5092 46.0468" stroke="white" stroke-width="3" stroke-linecap="round" stroke-linejoin="round"/>
<path d="M16 63.0103L69.4974 63.0468" stroke="white" stroke-width="3" stroke-linecap="round" stroke-linejoin="round"/>
<path d="M15.9883 80.0103L47.9212 80.032" stroke="white" stroke-width="3" stroke-linecap="round" stroke-linejoin="round"/>
<path d="M65.1944 101.592L73.8554 110.186C74.2605 110.588 74.9114 110.589 75.317 110.187L91.1829 94.4875" stroke="white" stroke-width="3" stroke-linecap="round" stroke-linejoin="round"/>
</svg>
